<svg width="800" height="400" viewBox="0 0 800 400" xmlns="http://www.w3.org/2000/svg"><defs><pattern id="satori_pattern_id_0" x="0" y="0" width="1" height="1" patternUnits="objectBoundingBox"><linearGradient id="satori_biid_0" x1="0" y1="0" x2="0" y2="1"><stop offset="0%" stop-color="#dbf4ff"/><stop offset="100%" stop-color="#fff1f1"/></linearGradient><rect x="0" y="0" width="800" height="400" fill="url(#satori_biid_0)"/></pattern></defs><mask id="satori_om-id"><rect x="0" y="0" width="800" height="400" fill="#fff"/></mask><rect x="0" y="0" width="800" height="400" fill="url(#satori_pattern_id_0)"/><clipPath id="satori_bct-id-0"><path d="M353.3 118.8L353.3 118.8L344.0 118.8Q343.7 117.0 342.9 115.6Q342.1 114.2 340.9 113.2Q339.7 112.2 338.0 111.6Q336.4 111.1 334.6 111.1L334.6 111.1Q331.2 111.1 328.7 112.8Q326.1 114.4 324.8 117.6Q323.4 120.8 323.4 125.3L323.4 125.3Q323.4 130.0 324.8 133.2Q326.2 136.4 328.7 138.0Q331.2 139.6 334.5 139.6L334.5 139.6Q336.4 139.6 337.9 139.1Q339.5 138.6 340.8 137.7Q342.0 136.7 342.8 135.4Q343.6 134.0 344.0 132.2L344.0 132.2L353.3 132.3Q352.9 135.3 351.5 138.1Q350.1 140.9 347.6 143.0Q345.2 145.2 341.9 146.5Q338.5 147.8 334.4 147.8L334.4 147.8Q328.5 147.8 323.9 145.1Q319.3 142.5 316.7 137.5Q314.0 132.5 314.0 125.3L314.0 125.3Q314.0 118.2 316.7 113.2Q319.4 108.2 324.0 105.6Q328.6 102.9 334.4 102.9L334.4 102.9Q338.1 102.9 341.4 104.0Q344.6 105.1 347.2 107.1Q349.7 109.1 351.3 112.1Q352.8 115.0 353.3 118.8ZM366.8 128.2L366.8 128.2L366.8 147.2L357.8 147.2L357.8 103.5L366.6 103.5L366.6 120.2L367.0 120.2Q368.1 117.3 370.5 115.7Q373.0 114.0 376.7 114.0L376.7 114.0Q380.1 114.0 382.7 115.5Q385.2 117.0 386.7 119.7Q388.1 122.5 388.0 126.3L388.0 126.3L388.0 147.2L379.0 147.2L379.0 127.9Q379.0 124.9 377.4 123.2Q375.9 121.5 373.1 121.5L373.1 121.5Q371.3 121.5 369.9 122.3Q368.4 123.1 367.6 124.6Q366.8 126.1 366.8 128.2ZM408.1 147.8L408.1 147.8Q403.1 147.8 399.4 145.7Q395.8 143.7 393.8 139.9Q391.9 136.1 391.9 130.9L391.9 130.9Q391.9 125.9 393.8 122.1Q395.8 118.3 399.4 116.1Q402.9 114.0 407.8 114.0L407.8 114.0Q411.0 114.0 413.8 115.0Q416.6 116.1 418.7 118.1Q420.8 120.2 422.0 123.3Q423.1 126.5 423.1 130.6L423.1 130.6L423.1 133.1L395.5 133.1L395.5 127.5L414.6 127.5Q414.6 125.5 413.7 124.0Q412.9 122.5 411.4 121.6Q409.9 120.8 407.9 120.8L407.9 120.8Q405.8 120.8 404.3 121.7Q402.7 122.7 401.8 124.3Q400.9 125.9 400.9 127.8L400.9 127.8L400.9 133.1Q400.9 135.6 401.8 137.3Q402.7 139.1 404.3 140.1Q406.0 141.0 408.3 141.0L408.3 141.0Q409.8 141.0 411.0 140.6Q412.3 140.2 413.2 139.3Q414.1 138.5 414.6 137.2L414.6 137.2L423.0 137.8Q422.3 140.8 420.3 143.1Q418.4 145.3 415.3 146.6Q412.2 147.8 408.1 147.8ZM441.9 147.8L441.9 147.8Q436.8 147.8 433.2 145.7Q429.6 143.5 427.7 139.7Q425.7 135.9 425.7 130.9L425.7 130.9Q425.7 125.9 427.7 122.1Q429.6 118.3 433.2 116.1Q436.8 114.0 441.8 114.0L441.8 114.0Q446.1 114.0 449.3 115.6Q452.5 117.1 454.4 119.9Q456.3 122.7 456.5 126.5L456.5 126.5L447.9 126.5Q447.5 124.1 446.0 122.6Q444.5 121.1 442.0 121.1L442.0 121.1Q439.9 121.1 438.3 122.2Q436.7 123.4 435.8 125.5Q435.0 127.7 435.0 130.8L435.0 130.8Q435.0 133.9 435.8 136.1Q436.7 138.3 438.3 139.5Q439.9 140.6 442.0 140.6L442.0 140.6Q443.5 140.6 444.8 140.0Q446.0 139.3 446.8 138.1Q447.6 136.9 447.9 135.2L447.9 135.2L456.5 135.2Q456.3 138.9 454.4 141.8Q452.6 144.6 449.4 146.2Q446.2 147.8 441.9 147.8ZM474.5 130.9L468.5 137.7L468.6 126.9L469.9 126.9L480.4 114.4L490.8 114.4L476.7 130.9L474.5 130.9ZM469.4 147.2L460.3 147.2L460.3 103.5L469.4 103.5L469.4 147.2ZM491.4 147.2L480.8 147.2L471.1 132.9L477.2 126.5L491.4 147.2Z "/></clipPath><defs><pattern id="satori_pattern_id-0_0" x="0" y="0" width="1" height="1" patternUnits="objectBoundingBox"><linearGradient id="satori_biid-0_0" x1="0" y1="0" x2="1" y2="0"><stop offset="0%" stop-color="rgb(0,124,240)"/><stop offset="100%" stop-color="rgb(0,223,216)"/></linearGradient><rect x="0" y="0" width="178" height="73" fill="url(#satori_biid-0_0)"/></pattern></defs><mask id="satori_om-id-0"><rect x="311" y="91" width="178" height="73" fill="#fff"/></mask><rect x="311" y="91" width="178" height="73" fill="url(#satori_pattern_id-0_0)" clip-path="url(#satori_bct-id-0)"/><clipPath id="satori_bct-id-1"><path d="M343.9 198.3L343.9 198.3Q343.9 205.5 341.2 210.5Q338.5 215.5 333.9 218.1Q329.2 220.8 323.5 220.8L323.5 220.8Q317.6 220.8 313.0 218.1Q308.4 215.5 305.7 210.5Q303.0 205.5 303.0 198.3L303.0 198.3Q303.0 191.2 305.7 186.2Q308.4 181.2 313.0 178.6Q317.6 175.9 323.5 175.9L323.5 175.9Q329.2 175.9 333.9 178.6Q338.5 181.2 341.2 186.2Q343.9 191.2 343.9 198.3ZM334.5 198.3L334.5 198.3Q334.5 193.7 333.2 190.5Q331.8 187.4 329.3 185.7Q326.8 184.1 323.5 184.1L323.5 184.1Q320.1 184.1 317.6 185.7Q315.1 187.4 313.8 190.5Q312.4 193.7 312.4 198.3L312.4 198.3Q312.4 203.0 313.8 206.1Q315.1 209.3 317.6 211.0Q320.1 212.6 323.5 212.6L323.5 212.6Q326.8 212.6 329.3 211.0Q331.8 209.3 333.2 206.1Q334.5 203.0 334.5 198.3ZM369.5 206.2L369.5 206.2L369.5 187.4L378.6 187.4L378.6 220.2L369.9 220.2L369.9 214.2L369.5 214.2Q368.4 217.1 365.9 218.8Q363.3 220.6 359.6 220.6L359.6 220.6Q356.3 220.6 353.8 219.1Q351.4 217.6 350.0 214.9Q348.6 212.1 348.5 208.3L348.5 208.3L348.5 187.4L357.6 187.4L357.6 206.7Q357.6 209.5 359.2 211.2Q360.7 212.9 363.3 212.9L363.3 212.9Q364.9 212.9 366.4 212.2Q367.8 211.4 368.7 209.9Q369.5 208.4 369.5 206.2ZM381.5 187.4L401.3 187.4L401.3 194.3L381.5 194.3L381.5 187.4ZM386.0 211.3L386.0 179.6L395.1 179.6L395.1 210.1Q395.1 211.4 395.5 212.1Q395.9 212.7 396.6 213.0Q397.3 213.3 398.2 213.3L398.2 213.3Q398.8 213.3 399.4 213.2Q400.1 213.1 400.4 213.0L400.4 213.0L401.9 219.8Q401.2 220.0 399.9 220.3Q398.7 220.5 396.9 220.6L396.9 220.6Q393.6 220.7 391.2 219.7Q388.7 218.7 387.4 216.6Q386 214.5 386.0 211.3L386.0 211.3Z M417.2 220.2L417.2 176.5L428.6 176.5L440.6 205.8L441.1 205.8L453.2 176.5L464.5 176.5L464.5 220.2L455.6 220.2L455.6 191.8L455.2 191.8L443.9 219.9L437.8 219.9L426.6 191.7L426.2 191.7L426.2 220.2L417.2 220.2ZM475.6 232.4L475.6 232.4Q473.8 232.4 472.3 232.2Q470.8 231.9 469.9 231.5L469.9 231.5L471.9 224.7Q473.5 225.2 474.8 225.3Q476.1 225.3 477.0 224.7Q478.0 224.0 478.6 222.5L478.6 222.5L479.1 221.1L467.4 187.4L476.9 187.4L483.7 211.5L484.0 211.5L490.9 187.4L500.5 187.4L487.7 223.7Q486.8 226.3 485.3 228.3Q483.7 230.3 481.3 231.4Q478.9 232.4 475.6 232.4Z "/></clipPath><defs><pattern id="satori_pattern_id-1_0" x="0" y="0" width="1" height="1" patternUnits="objectBoundingBox"><linearGradient id="satori_biid-1_0" x1="0" y1="0" x2="1" y2="0"><stop offset="0%" stop-color="rgb(121,40,202)"/><stop offset="100%" stop-color="rgb(255,0,128)"/></linearGradient><rect x="0" y="0" width="200" height="72" fill="url(#satori_biid-1_0)"/></pattern></defs><mask id="satori_om-id-1"><rect x="300" y="164" width="200" height="72" fill="#fff"/></mask><rect x="300" y="164" width="200" height="72" fill="url(#satori_pattern_id-1_0)" clip-path="url(#satori_bct-id-1)"/><clipPath id="satori_bct-id-2"><path d="M296.0 292.2L286.8 292.2L286.8 248.5L304.0 248.5Q309.0 248.5 312.5 250.4Q316.0 252.3 317.8 255.6Q319.6 259.0 319.6 263.3L319.6 263.3Q319.6 267.7 317.8 271.0Q315.9 274.3 312.4 276.2Q308.8 278.0 303.8 278.0L303.8 278.0L292.8 278.0L292.8 270.6L302.3 270.6Q304.9 270.6 306.7 269.7Q308.4 268.8 309.3 267.1Q310.1 265.5 310.1 263.3L310.1 263.3Q310.1 261.1 309.3 259.5Q308.4 257.9 306.7 257.0Q304.9 256.1 302.2 256.1L302.2 256.1L296.0 256.1L296.0 292.2ZM337.7 292.8L337.7 292.8Q332.8 292.8 329.1 290.7Q325.5 288.6 323.6 284.8Q321.6 281.0 321.6 275.9L321.6 275.9Q321.6 270.9 323.6 267.1Q325.5 263.2 329.1 261.1Q332.8 259.0 337.7 259.0L337.7 259.0Q342.7 259.0 346.3 261.1Q349.9 263.2 351.9 267.1Q353.8 270.9 353.8 275.9L353.8 275.9Q353.8 281.0 351.9 284.8Q349.9 288.6 346.3 290.7Q342.7 292.8 337.7 292.8ZM337.8 285.8L337.8 285.8Q340.0 285.8 341.5 284.5Q343.0 283.2 343.8 281.0Q344.6 278.7 344.6 275.9L344.6 275.9Q344.6 273.0 343.8 270.8Q343.0 268.5 341.5 267.2Q340.0 265.9 337.8 265.9L337.8 265.9Q335.5 265.9 333.9 267.2Q332.4 268.5 331.6 270.8Q330.8 273.0 330.8 275.9L330.8 275.9Q330.8 278.7 331.6 281.0Q332.4 283.2 333.9 284.5Q335.5 285.8 337.8 285.8ZM366.8 292.2L357.8 292.2L357.8 259.4L366.5 259.4L366.5 265.1L366.9 265.1Q367.8 262.1 369.9 260.5Q372.0 259.0 374.8 259.0L374.8 259.0Q375.4 259.0 376.2 259.0Q377.0 259.1 377.6 259.3L377.6 259.3L377.6 267.3Q377.0 267.1 375.8 267.0Q374.7 266.8 373.8 266.8L373.8 266.8Q371.8 266.8 370.2 267.7Q368.6 268.6 367.7 270.1Q366.8 271.6 366.8 273.6L366.8 273.6L366.8 292.2ZM379.6 259.4L399.3 259.4L399.3 266.3L379.6 266.3L379.6 259.4ZM384.1 283.3L384.1 251.6L393.2 251.6L393.2 282.1Q393.2 283.4 393.5 284.1Q393.9 284.7 394.6 285.0Q395.3 285.3 396.2 285.3L396.2 285.3Q396.9 285.3 397.5 285.2Q398.2 285.1 398.5 285.0L398.5 285.0L399.9 291.8Q399.2 292.0 398.0 292.3Q396.8 292.5 395.0 292.6L395.0 292.6Q391.7 292.7 389.3 291.7Q386.8 290.7 385.4 288.6Q384.1 286.5 384.1 283.3L384.1 283.3ZM400.6 259.4L420.8 259.4L420.8 266.3L400.6 266.3L400.6 259.4ZM414.3 292.2L405.2 292.2L405.2 257.1Q405.2 253.5 406.6 251.2Q408.0 248.8 410.5 247.7Q412.9 246.5 416.0 246.5L416.0 246.5Q418.1 246.5 419.8 246.8Q421.5 247.1 422.4 247.4L422.4 247.4L420.8 254.2Q420.2 254.0 419.5 253.9Q418.7 253.7 417.9 253.7L417.9 253.7Q415.9 253.7 415.1 254.6Q414.3 255.6 414.3 257.2L414.3 257.2L414.3 292.2ZM438.0 292.8L438.0 292.8Q433.0 292.8 429.4 290.7Q425.8 288.6 423.9 284.8Q421.9 281.0 421.9 275.9L421.9 275.9Q421.9 270.9 423.9 267.1Q425.8 263.2 429.4 261.1Q433.0 259.0 438.0 259.0L438.0 259.0Q443.0 259.0 446.6 261.1Q450.2 263.2 452.1 267.1Q454.1 270.9 454.1 275.9L454.1 275.9Q454.1 281.0 452.1 284.8Q450.2 288.6 446.6 290.7Q443.0 292.8 438.0 292.8ZM438.0 285.8L438.0 285.8Q440.3 285.8 441.8 284.5Q443.3 283.2 444.1 281.0Q444.9 278.7 444.9 275.9L444.9 275.9Q444.9 273.0 444.1 270.8Q443.3 268.5 441.8 267.2Q440.3 265.9 438.0 265.9L438.0 265.9Q435.8 265.9 434.2 267.2Q432.7 268.5 431.9 270.8Q431.1 273.0 431.1 275.9L431.1 275.9Q431.1 278.7 431.9 281.0Q432.7 283.2 434.2 284.5Q435.8 285.8 438.0 285.8ZM458.0 248.5L467.1 248.5L467.1 292.2L458.0 292.2L458.0 248.5ZM481.4 292.2L472.4 292.2L472.4 259.4L481.4 259.4L481.4 292.2ZM476.9 255.2L476.9 255.2Q474.9 255.2 473.4 253.9Q472.0 252.5 472.0 250.6L472.0 250.6Q472.0 248.7 473.4 247.4Q474.9 246.0 476.9 246.0L476.9 246.0Q478.9 246.0 480.4 247.4Q481.8 248.7 481.8 250.6L481.8 250.6Q481.8 252.5 480.4 253.9Q478.9 255.2 476.9 255.2ZM501.5 292.8L501.5 292.8Q496.5 292.8 492.9 290.7Q489.3 288.6 487.3 284.8Q485.4 281.0 485.4 275.9L485.4 275.9Q485.4 270.9 487.3 267.1Q489.3 263.2 492.9 261.1Q496.5 259.0 501.5 259.0L501.5 259.0Q506.4 259.0 510.0 261.1Q513.6 263.2 515.6 267.1Q517.6 270.9 517.6 275.9L517.6 275.9Q517.6 281.0 515.6 284.8Q513.6 288.6 510.0 290.7Q506.4 292.8 501.5 292.8ZM501.5 285.8L501.5 285.8Q503.8 285.8 505.3 284.5Q506.8 283.2 507.6 281.0Q508.3 278.7 508.3 275.9L508.3 275.9Q508.3 273.0 507.6 270.8Q506.8 268.5 505.3 267.2Q503.8 265.9 501.5 265.9L501.5 265.9Q499.2 265.9 497.7 267.2Q496.1 268.5 495.4 270.8Q494.6 273.0 494.6 275.9L494.6 275.9Q494.6 278.7 495.4 281.0Q496.1 283.2 497.7 284.5Q499.2 285.8 501.5 285.8Z "/></clipPath><defs><pattern id="satori_pattern_id-2_0" x="0" y="0" width="1" height="1" patternUnits="objectBoundingBox"><linearGradient id="satori_biid-2_0" x1="0" y1="0" x2="1" y2="0"><stop offset="0%" stop-color="rgb(255,77,77)"/><stop offset="100%" stop-color="rgb(249,203,40)"/></linearGradient><rect x="0" y="0" width="234" height="73" fill="url(#satori_biid-2_0)"/></pattern></defs><mask id="satori_om-id-2"><rect x="283" y="236" width="234" height="73" fill="#fff"/></mask><rect x="283" y="236" width="234" height="73" fill="url(#satori_pattern_id-2_0)" clip-path="url(#satori_bct-id-2)"/></svg>